<svg width="966" height="559" viewBox="0 0 966 559" fill="none" xmlns="http://www.w3.org/2000/svg">
<path d="M214.094 198.42C215.29 199.615 216.909 200.695 218.686 201.684C221.728 202.762 224.323 203.839 226.473 204.91C229.566 206.462 231.697 207.623 232.858 208.393L224.732 231.611C222.991 230.45 220.479 229.195 217.186 227.844C213.893 226.493 210.168 225.131 206.009 223.78C201.851 222.43 197.303 221.311 192.374 220.445C187.445 219.569 182.453 219.137 177.43 219.137C166.792 219.137 157.209 220.973 148.702 224.646C140.186 228.319 132.935 233.648 126.941 240.603C120.946 247.569 116.345 256.033 113.157 265.996C109.97 275.958 108.366 287.135 108.366 299.514C108.366 311.514 109.77 322.437 112.577 332.316C115.384 342.183 119.585 350.648 125.199 357.708C130.803 364.768 137.821 370.235 146.243 374.109C154.655 377.982 164.48 379.913 175.699 379.913C188.659 379.913 199.403 378.562 207.909 375.85C216.426 373.138 222.811 370.721 227.064 368.589L234.325 391.807C232.964 392.778 230.547 393.981 227.064 395.438C223.582 396.894 219.233 398.298 213.999 399.649C208.764 401 202.685 402.161 195.709 403.131C188.754 404.102 181.208 404.588 173.082 404.588C158.961 404.588 146.096 402.266 134.486 397.622C122.877 392.979 112.915 386.203 104.588 377.306C96.2712 368.41 89.8334 357.423 85.2847 344.368C80.7361 331.302 78.467 316.358 78.467 299.525C78.467 282.692 81.0316 267.748 86.1607 254.682C89.1146 247.157 92.6602 240.326 96.7993 234.185C96.0758 234.193 95.3476 234.197 94.6147 234.197C80.4937 234.197 67.6287 231.875 56.0195 227.232C44.4103 222.588 34.437 215.812 26.1206 206.915C17.8042 198.019 11.3664 187.032 6.81775 173.977C2.26906 160.922 0 145.967 0 129.134C0 112.301 2.56457 97.3566 7.69371 84.291C12.8229 71.2254 19.7356 60.2495 28.4424 51.3526C37.1493 42.4558 47.3126 35.6803 58.9218 31.0366C70.531 26.3929 82.9105 24.0711 96.0711 24.0711C104.387 24.0711 111.891 24.6516 118.561 25.8125C125.242 26.9734 131.046 28.3243 135.975 29.8757C140.914 31.4271 144.925 32.9679 148.017 34.5193C151.109 36.0707 153.241 37.2317 154.402 38.0021L146.275 61.2204C144.534 60.0595 142.022 58.8036 138.73 57.4422C135.437 56.0913 131.711 54.7298 127.553 53.3789C123.395 52.0281 118.846 50.9094 113.918 50.044C108.989 49.168 103.997 48.7353 98.9734 48.7353C88.3352 48.7353 78.7523 50.5717 70.246 54.2444C61.7291 57.9276 54.4786 63.2467 48.4841 70.2017C42.4895 77.1672 37.8881 85.6313 34.7008 95.5941C31.503 105.557 29.9094 116.733 29.9094 129.113C29.9094 141.113 31.3131 152.036 34.1204 161.914C36.9277 171.782 41.1281 180.246 46.7427 187.307C52.3573 194.367 59.365 199.834 67.787 203.707C76.2089 207.58 86.0239 209.512 97.2426 209.512C109.78 209.512 120.331 208.435 128.803 205.384C131.567 203.928 134.426 202.609 137.378 201.427C148.987 196.784 161.367 194.462 174.528 194.462C177.473 194.462 180.316 194.535 183.057 194.68C182.641 191.643 182.433 188.38 182.433 184.89V5.23261L209.208 0.620605V180.563C209.208 184.974 209.587 188.626 210.358 191.507C211.118 194.388 212.374 196.689 214.094 198.42Z" fill="#00C3A5"/>
<path d="M283.274 55.7958C278.44 55.7958 274.324 54.2022 270.936 51.0043C267.549 47.8065 265.86 43.5112 265.86 38.0865C265.86 32.6724 267.549 28.3665 270.936 25.1687C274.324 21.9814 278.43 20.3773 283.274 20.3773C288.107 20.3773 292.223 21.9709 295.611 25.1687C298.999 28.3665 300.688 32.6724 300.688 38.0865C300.688 43.5006 298.988 47.8065 295.611 51.0043C292.213 54.2022 288.107 55.7958 283.274 55.7958Z" fill="#00C3A5"/>
<path d="M296.508 234.777L296.909 83.0773H269.913L270.375 229.816L269.754 364.346C269.754 378.657 273.205 389.2 280.108 395.976C287.01 402.752 298.703 406.329 315.199 406.72L318.924 384.082C314.703 383.501 311.157 382.784 308.286 381.908C305.416 381.042 303.104 379.734 301.384 377.992C299.664 376.251 298.408 373.929 297.648 371.027C296.878 368.125 296.498 364.452 296.498 359.998L296.508 234.777Z" fill="#00C3A5"/>
<path d="M369.055 82.7079C358.797 84.4493 350.575 86.0957 344.38 87.6366V234.197H371.366V106.792C372.337 106.591 373.931 106.306 376.158 105.916C378.384 105.536 380.896 105.198 383.704 104.903C386.511 104.607 389.466 104.375 392.558 104.174C395.661 103.984 398.658 103.889 401.561 103.889C408.716 103.889 414.721 104.808 419.555 106.644C424.388 108.491 428.262 111.435 431.164 115.499C434.066 119.551 436.135 124.881 437.401 131.456C438.657 138.031 439.29 145.967 439.29 155.255V234.197H466.287V149.45C466.287 139.202 465.316 129.82 463.385 121.303C461.443 112.797 458.108 105.494 453.369 99.3935C448.63 93.3039 442.288 88.5653 434.362 85.1775C426.425 81.8003 416.462 80.1012 404.463 80.1012C391.112 80.1012 379.303 80.9666 369.055 82.7079Z" fill="#00C3A5"/>
<path d="M526.539 55.9963C521.705 55.9963 517.589 54.4027 514.201 51.2049C510.813 48.0176 509.125 43.7117 509.125 38.287C509.125 32.873 510.813 28.567 514.201 25.3692C517.589 22.1714 521.694 20.5778 526.539 20.5778C531.372 20.5778 535.488 22.1714 538.876 25.3692C542.264 28.567 543.952 32.873 543.952 38.287C543.952 43.7011 542.253 48.0071 538.876 51.2049C535.488 54.4027 531.383 55.9963 526.539 55.9963Z" fill="#00C3A5"/>
<path d="M540.185 234.197H513.199V83.2778H540.185V234.197Z" fill="#00C3A5"/>
<path fill-rule="evenodd" clip-rule="evenodd" d="M624.689 227.232C636.298 231.875 649.163 234.197 663.284 234.197C671.41 234.197 678.956 233.712 685.922 232.741C692.79 231.785 698.799 230.644 703.969 229.32V401.084C711.895 403.015 720.749 404.324 730.522 405C740.295 405.675 749.245 406.013 757.371 406.013C773.814 406.013 788.906 403.934 802.647 399.775C816.388 395.607 828.187 389.317 838.055 380.905C847.923 372.483 855.574 361.845 860.988 348.98C866.402 336.115 869.115 320.97 869.115 303.557C869.115 286.143 866.402 271.009 860.988 258.133C855.563 245.268 847.923 234.619 838.055 226.208C828.187 217.796 816.388 211.506 802.647 207.348C788.906 203.19 773.814 201.111 757.371 201.111C749.245 201.111 740.295 201.449 730.522 202.124C720.869 202.791 712.122 204.076 704.261 205.969C703.111 206.121 701.73 206.371 700.043 206.768C691.336 208.815 678.861 209.512 665.901 209.512C654.683 209.512 644.857 207.58 636.446 203.707C628.024 199.834 621.005 194.367 615.401 187.307C609.787 180.246 605.586 171.782 602.779 161.914C599.972 152.036 598.568 141.113 598.568 129.113C598.568 116.733 600.162 105.557 603.359 95.5941C606.547 85.6313 611.138 77.1672 617.143 70.2017C623.127 63.2467 630.388 57.9276 638.905 54.2444C647.411 50.5717 656.994 48.7353 667.632 48.7353C672.656 48.7353 677.648 49.168 682.576 50.044C687.515 50.9094 692.053 52.0281 696.222 53.3789C700.38 54.7298 704.106 56.0913 707.399 57.4422C710.691 58.8036 713.203 60.0595 714.945 61.2204L723.071 38.0021C721.91 37.2317 719.778 36.0707 716.686 34.5193C713.594 32.9679 709.583 31.4271 704.644 29.8757C699.705 28.3243 693.9 26.9734 687.23 25.8125C680.56 24.6516 673.057 24.0711 664.74 24.0711C651.58 24.0711 639.2 26.3929 627.591 31.0366C615.982 35.6803 605.819 42.4558 597.112 51.3526C588.405 60.2495 581.492 71.2254 576.363 84.291C571.234 97.3566 568.669 112.301 568.669 129.134C568.669 145.967 570.938 160.922 575.487 173.977C580.036 187.032 586.473 198.019 594.79 206.915C603.106 215.812 613.08 222.588 624.689 227.232ZM819.491 360.874C806.33 374.52 786.405 381.338 759.703 381.338C751.767 381.338 745.625 381.243 741.277 381.053C736.928 380.863 733.878 380.662 732.137 380.473V226.651C733.878 226.461 736.928 226.261 741.277 226.071C745.625 225.87 751.767 225.775 759.703 225.775C786.405 225.775 806.33 232.593 819.491 246.239C832.641 259.874 839.226 278.987 839.226 303.557C839.226 328.126 832.641 347.239 819.491 360.874Z" fill="#00C3A5"/>
<path d="M635.285 397.76C629.09 399.311 620.921 400.957 610.758 402.688C600.605 404.43 588.848 405.306 575.498 405.306C563.888 405.306 554.116 403.606 546.19 400.229C538.253 396.841 531.868 392.061 527.035 385.865C522.19 379.67 518.718 372.367 516.586 363.956C514.455 355.534 513.389 346.204 513.389 335.946V251.199H540.385V330.142C540.385 348.526 543.287 361.676 549.092 369.613C554.897 377.549 564.659 381.507 578.4 381.507C581.302 381.507 584.299 381.412 587.402 381.222C590.495 381.032 593.397 380.789 596.109 380.494C598.821 380.198 601.281 379.913 603.507 379.618C605.734 379.322 607.328 378.995 608.299 378.604V251.189H635.285V397.76Z" fill="#00C3A5"/>
<path d="M404.874 262.217H404.568C391.386 262.291 378.964 266.977 369.593 275.42C361.439 282.763 356.401 292.186 355.061 302.397C334.081 302.991 320.053 323.902 320.053 343.46C320.053 365.255 337.791 383.123 360.031 384.237V384.24H360.078C360.793 384.275 361.513 384.292 362.237 384.292C362.871 384.292 363.506 384.274 364.14 384.24H369.751V365.834H360.031C347.799 365.011 338.628 355.196 338.628 343.46C338.628 337.55 340.96 330.774 344.791 325.941C345.54 324.611 346.575 323.439 347.862 322.521C348.527 321.867 349.245 321.276 350.11 320.811C351.123 320.03 355.978 317.899 357.498 317.698C357.734 317.645 357.988 317.564 358.251 317.48C358.715 317.333 359.207 317.176 359.672 317.149C360.432 317.001 362.395 317.002 362.5 317.002C363.158 316.855 365.03 317.184 365.962 317.348L365.964 317.349C366.242 317.398 366.436 317.432 366.49 317.434C366.501 317.43 366.512 317.425 366.522 317.418C367.11 317.539 367.605 317.639 367.93 317.704L367.938 317.706C368.084 317.736 368.195 317.758 368.263 317.772C368.378 317.784 368.499 317.791 368.619 317.799C368.818 317.811 369.019 317.824 369.202 317.856C369.392 317.804 369.572 317.709 369.73 317.571C369.783 317.529 369.878 315.777 369.878 315.545C369.878 314.764 369.962 313.994 370.11 313.244C370.215 308.78 375.967 295.957 377.424 294.29C378.732 292.548 381.93 289.277 382.014 289.213C388.822 284.348 396.03 280.834 404.863 280.791C419.797 280.791 432.293 289.836 435.469 301.878C435.86 302.986 437.147 309.35 437.01 311.049C437.211 312.2 437.38 314.437 437.232 315.767C437.635 316.229 438.227 315.861 438.669 315.585C438.739 315.542 438.805 315.501 438.866 315.466C438.903 315.444 438.939 315.424 438.973 315.408C439.326 315.245 439.652 315.092 439.958 314.949C442.771 313.634 443.879 313.115 448.912 312.277C450.006 312.123 451.177 312.015 452.535 311.988H452.967C466.614 311.988 477.716 324.146 477.716 339.08C477.716 352.312 468.784 363.366 457.027 365.712L387.164 365.971L387.238 384.409L442.692 384.585C445.852 384.714 449.096 384.736 452.366 384.736C476.587 384.736 496.291 364.251 496.291 339.069C496.291 313.888 476.861 293.414 452.967 293.414L452.361 293.422C445.708 275.314 426.9 262.217 404.874 262.217Z" fill="#627282"/>
<path d="M368.59 364.947C368.59 364.947 368.485 364.968 368.305 365L368.59 364.947Z" fill="#627282"/>
<path fill-rule="evenodd" clip-rule="evenodd" d="M327.94 525.447C332.374 519.574 334.591 511.814 334.591 502.167V501.234C334.591 491.16 332.394 483.225 327.998 477.429C323.642 471.634 317.632 468.736 309.97 468.736C302.307 468.736 296.298 471.439 291.941 476.846V443.414H281.147V533.032H291.066L291.591 525.739C295.948 531.379 302.113 534.199 310.086 534.199C317.555 534.199 323.506 531.282 327.94 525.447ZM319.538 483.905C322.378 487.912 323.798 493.591 323.798 500.942C323.798 508.994 322.358 515.023 319.48 519.029C316.602 523.035 312.576 525.039 307.403 525.039C300.401 525.039 295.247 521.732 291.941 515.12V487.815C295.053 481.202 300.168 477.896 307.286 477.896C312.615 477.896 316.699 479.899 319.538 483.905ZM867.573 533.032H853.395V443.414H867.573V533.032ZM883.967 533.032H898.145V469.903H883.967V533.032ZM885.134 448.082C883.773 449.521 883.092 451.329 883.092 453.508C883.092 455.647 883.773 457.436 885.134 458.875C886.535 460.276 888.518 460.976 891.086 460.976C893.653 460.976 895.636 460.276 897.037 458.875C898.437 457.436 899.137 455.647 899.137 453.508C899.137 451.329 898.437 449.521 897.037 448.082C895.636 446.642 893.653 445.923 891.086 445.923C888.518 445.923 886.535 446.642 885.134 448.082ZM949.722 527.139C950.189 529.862 950.733 531.826 951.356 533.032H965.825V532.04C964.231 528.656 963.433 524.125 963.433 518.446V489.973C963.317 483.244 961.061 478.032 956.665 474.337C952.27 470.603 946.377 468.736 938.987 468.736C934.125 468.736 929.71 469.592 925.742 471.303C921.814 473.014 918.702 475.387 916.407 478.421C914.112 481.416 912.965 484.645 912.965 488.106H927.143C927.143 485.617 928.173 483.575 930.235 481.98C932.297 480.346 934.941 479.53 938.17 479.53C941.904 479.53 944.685 480.522 946.513 482.505C948.341 484.45 949.255 487.056 949.255 490.323V494.466H940.562C931.266 494.466 924.109 496.275 919.091 499.892C914.112 503.471 911.623 508.624 911.623 515.353C911.623 520.682 913.626 525.155 917.632 528.773C921.639 532.39 926.812 534.199 933.152 534.199C939.687 534.199 945.21 531.846 949.722 527.139ZM943.654 520.78C941.204 522.141 938.578 522.822 935.778 522.822C932.744 522.822 930.313 522.024 928.485 520.429C926.695 518.796 925.801 516.618 925.801 513.895C925.801 510.55 927.123 507.963 929.768 506.135C932.413 504.307 936.361 503.393 941.612 503.393H949.255V515.295C948.011 517.59 946.144 519.418 943.654 520.78ZM823.93 527.139C824.397 529.862 824.942 531.826 825.564 533.032H840.034V532.04C838.439 528.656 837.642 524.125 837.642 518.446V489.973C837.525 483.244 835.269 478.032 830.874 474.337C826.478 470.603 820.585 468.736 813.195 468.736C808.333 468.736 803.918 469.592 799.951 471.303C796.022 473.014 792.91 475.387 790.616 478.421C788.321 481.416 787.173 484.645 787.173 488.106H801.351C801.351 485.617 802.382 483.575 804.443 481.98C806.505 480.346 809.15 479.53 812.378 479.53C816.112 479.53 818.893 480.522 820.721 482.505C822.55 484.45 823.464 487.056 823.464 490.323V494.466H814.77C805.474 494.466 798.317 496.275 793.299 499.892C788.321 503.471 785.831 508.624 785.831 515.353C785.831 520.682 787.834 525.155 791.841 528.773C795.847 532.39 801.02 534.199 807.361 534.199C813.895 534.199 819.418 531.846 823.93 527.139ZM817.863 520.78C815.412 522.141 812.787 522.822 809.986 522.822C806.952 522.822 804.521 522.024 802.693 520.429C800.904 518.796 800.009 516.618 800.009 513.895C800.009 510.55 801.332 507.963 803.977 506.135C806.621 504.307 810.57 503.393 815.821 503.393H823.464V515.295C822.219 517.59 820.352 519.418 817.863 520.78ZM780.638 482.855C778.771 482.544 776.846 482.389 774.862 482.389C768.367 482.389 763.991 484.878 761.735 489.857V533.032H747.557V469.903H761.093L761.443 476.962C764.866 471.478 769.611 468.736 775.679 468.736C777.702 468.736 779.374 469.008 780.697 469.553L780.638 482.855ZM680.577 484.197C678.126 489.137 676.901 494.699 676.901 500.884V501.584C676.901 511.464 679.566 519.379 684.894 525.33C690.262 531.243 697.4 534.199 706.307 534.199C712.142 534.199 717.276 532.857 721.71 530.173C726.183 527.489 729.606 523.697 731.979 518.796C734.39 513.895 735.596 508.333 735.596 502.109L735.538 498.783C735.11 489.721 732.232 482.447 726.903 476.962C721.613 471.478 714.709 468.736 706.19 468.736C700.434 468.736 695.338 470.078 690.904 472.762C686.47 475.407 683.027 479.218 680.577 484.197ZM695.105 517.396C692.421 513.7 691.079 508.605 691.079 502.109C691.079 494.797 692.44 489.312 695.163 485.656C697.886 481.961 701.562 480.113 706.19 480.113C710.897 480.113 714.611 481.98 717.334 485.714C720.096 489.448 721.477 494.505 721.477 500.884C721.477 508.08 720.135 513.545 717.451 517.279C714.806 521.013 711.091 522.88 706.307 522.88C701.523 522.88 697.789 521.052 695.105 517.396ZM659.281 454.558V469.903H670.425V480.405H659.281V515.645C659.281 518.057 659.748 519.807 660.681 520.896C661.654 521.947 663.365 522.472 665.816 522.472C667.449 522.472 669.102 522.277 670.775 521.888V532.857C667.547 533.752 664.435 534.199 661.44 534.199C650.549 534.199 645.103 528.189 645.103 516.17V480.405H634.718V469.903H645.103V454.558H659.281ZM613.714 519.788C611.38 521.849 608.443 522.88 604.903 522.88C600.236 522.88 596.657 521.207 594.168 517.862C591.717 514.478 590.492 509.363 590.492 502.518V500.242C590.531 493.474 591.795 488.437 594.285 485.131C596.774 481.786 600.314 480.113 604.903 480.113C608.482 480.113 611.419 481.28 613.714 483.614C616.047 485.948 617.292 488.923 617.448 492.541H630.809C630.575 485.422 628.086 479.685 623.34 475.329C618.634 470.934 612.527 468.736 605.02 468.736C596.152 468.736 589.15 471.634 584.016 477.429C578.882 483.186 576.314 490.868 576.314 500.475V501.934C576.314 512.008 578.901 519.904 584.074 525.622C589.248 531.34 596.249 534.199 605.079 534.199C609.629 534.199 613.869 533.207 617.798 531.223C621.726 529.24 624.838 526.556 627.133 523.172C629.428 519.749 630.653 516.073 630.809 512.144H617.448C617.292 515.178 616.047 517.726 613.714 519.788ZM508.284 500.884C508.284 494.699 509.51 489.137 511.96 484.197C514.411 479.218 517.853 475.407 522.287 472.762C526.721 470.078 531.817 468.736 537.573 468.736C546.092 468.736 552.996 471.478 558.286 476.962C563.615 482.447 566.493 489.721 566.921 498.783L566.979 502.109C566.979 508.333 565.774 513.895 563.362 518.796C560.989 523.697 557.566 527.489 553.093 530.173C548.659 532.857 543.525 534.199 537.69 534.199C528.783 534.199 521.645 531.243 516.278 525.33C510.949 519.379 508.284 511.464 508.284 501.584V500.884ZM522.462 502.109C522.462 508.605 523.804 513.7 526.488 517.396C529.172 521.052 532.906 522.88 537.69 522.88C542.474 522.88 546.189 521.013 548.834 517.279C551.518 513.545 552.86 508.08 552.86 500.884C552.86 494.505 551.479 489.448 548.717 485.714C545.995 481.98 542.28 480.113 537.573 480.113C532.945 480.113 529.269 481.961 526.546 485.656C523.824 489.312 522.462 494.797 522.462 502.109ZM434.245 448.082V533.032H458.691C466.354 533.032 473.141 531.379 479.053 528.072C485.005 524.766 489.575 520.06 492.765 513.953C495.993 507.846 497.607 500.767 497.607 492.715V488.456C497.607 480.521 496.012 473.481 492.823 467.335C489.633 461.19 485.121 456.444 479.287 453.099C473.491 449.754 466.84 448.082 459.333 448.082H434.245ZM449.006 521.246V459.984H459.333C466.957 459.984 472.772 462.415 476.778 467.277C480.784 472.139 482.788 479.179 482.788 488.398V493.124C482.71 502.187 480.59 509.149 476.428 514.011C472.305 518.835 466.373 521.246 458.633 521.246H449.006ZM368.198 517.221L382.901 469.903H394.453L369.073 542.776C365.145 553.278 358.902 558.529 350.344 558.529L348.302 558.354L344.277 557.595V548.844L347.194 549.077C350.85 549.077 353.69 548.338 355.712 546.86C357.774 545.382 359.466 542.678 360.788 538.75L363.18 532.332L340.659 469.903H352.445L368.198 517.221Z" fill="#627282"/>
</svg>
