<?xml version="1.0" encoding="UTF-8"?>
<svg xmlns="http://www.w3.org/2000/svg" xmlns:xlink="http://www.w3.org/1999/xlink" width="872.4pt" height="119.03pt" viewBox="0 0 872.4 119.03" version="1.1">
<defs>
<clipPath id="clip1">
  <path d="M 856 15 L 872.398438 15 L 872.398438 32 L 856 32 Z M 856 15 "/>
</clipPath>
<clipPath id="clip2">
  <path d="M 14 31 L 125 31 L 125 119.03125 L 14 119.03125 Z M 14 31 "/>
</clipPath>
<clipPath id="clip3">
  <path d="M 69 73 L 109 73 L 109 119.03125 L 69 119.03125 Z M 69 73 "/>
</clipPath>
</defs>
<g id="surface1">
<path style=" stroke:none;fill-rule:nonzero;fill:rgb(17.298889%,72.898865%,63.09967%);fill-opacity:1;" d="M 183.378906 29.761719 C 183.070313 48.914063 183.058594 68.082031 183.390625 87.230469 C 192.261719 86.980469 202.378906 88.800781 209.921875 82.941406 C 216.710938 77.273438 216.949219 67.59375 217.070313 59.453125 C 216.988281 50.914063 217.199219 40.8125 210.378906 34.523438 C 202.859375 28.292969 192.421875 29.953125 183.378906 29.761719 Z M 168.308594 15.890625 C 181.089844 16.261719 194.03125 14.972656 206.691406 17.253906 C 214.429688 18.773438 222.160156 22.570313 226.511719 29.402344 C 232.578125 38.851563 233.070313 50.542969 232.890625 61.441406 C 232.679688 71.542969 231.21875 82.492188 224.398438 90.433594 C 218.128906 97.683594 208.199219 100.132813 199.011719 100.851563 C 188.78125 101.433594 178.519531 100.960938 168.269531 101.152344 C 168.109375 72.742188 168.03125 44.3125 168.308594 15.890625 "/>
<path style=" stroke:none;fill-rule:nonzero;fill:rgb(17.298889%,72.898865%,63.09967%);fill-opacity:1;" d="M 499.871094 15.890625 C 519.648438 15.941406 539.429688 15.941406 559.210938 15.890625 C 559.171875 20.472656 559.171875 25.0625 559.191406 29.652344 C 551.859375 29.761719 544.53125 29.792969 537.210938 29.730469 C 536.910156 53.53125 537.121094 77.34375 537.101563 101.140625 C 532.109375 101.121094 527.109375 101.113281 522.121094 101.171875 C 521.839844 77.363281 522.011719 53.550781 522.039063 29.742188 C 514.640625 29.792969 507.238281 29.792969 499.851563 29.582031 C 499.921875 25.023438 499.929688 20.453125 499.871094 15.890625 "/>
<path style=" stroke:none;fill-rule:nonzero;fill:rgb(17.298889%,72.898865%,63.09967%);fill-opacity:1;" d="M 739.699219 15.953125 C 743.511719 15.402344 747.421875 17.960938 748.308594 21.730469 C 749.511719 25.652344 746.898438 30.082031 743.050781 31.28125 C 738.96875 32.902344 734.261719 29.914063 733.101563 25.882813 C 731.660156 21.492188 735.109375 16.320313 739.699219 15.953125 "/>
<g clip-path="url(#clip1)" clip-rule="nonzero">
<path style=" stroke:none;fill-rule:nonzero;fill:rgb(17.298889%,72.898865%,63.09967%);fill-opacity:1;" d="M 863.699219 15.953125 C 868.839844 15.082031 873.378906 20.230469 872.21875 25.230469 C 871.5 31.070313 863.378906 34.003906 859.308594 29.542969 C 854.300781 25.390625 857.171875 16.3125 863.699219 15.953125 "/>
</g>
<path style=" stroke:none;fill-rule:nonzero;fill:rgb(17.298889%,72.898865%,63.09967%);fill-opacity:1;" d="M 308.761719 17.371094 C 313.371094 16.871094 317.988281 16.410156 322.609375 16.023438 C 322.75 32.191406 322.539063 48.363281 322.710938 64.53125 C 328.019531 59.5625 333.199219 54.363281 337.300781 48.320313 C 339.140625 45.78125 340.640625 42.953125 342.941406 40.773438 C 347.519531 39.480469 352.398438 40.300781 357.101563 40.320313 C 352.460938 50.03125 345.980469 58.730469 338.539063 66.472656 C 345.191406 78.03125 352.179688 89.402344 358.671875 101.0625 C 353.761719 101.0625 348.800781 101.613281 343.929688 100.820313 C 341.988281 99.402344 340.921875 97.171875 339.679688 95.183594 C 335.96875 88.582031 332.179688 82.03125 328.28125 75.542969 C 326.429688 76.664063 324.589844 77.792969 322.75 78.921875 C 322.628906 86.332031 322.679688 93.753906 322.519531 101.160156 C 317.921875 101.121094 313.320313 101.113281 308.71875 101.140625 C 308.78125 73.222656 308.691406 45.292969 308.761719 17.371094 "/>
<path style=" stroke:none;fill-rule:nonzero;fill:rgb(17.298889%,72.898865%,63.09967%);fill-opacity:1;" d="M 619.691406 17.371094 C 624.210938 16.863281 628.738281 16.421875 633.28125 16.023438 C 633.378906 32.042969 632.78125 48.082031 633.628906 64.09375 C 640.058594 58.664063 645.75 52.363281 650.230469 45.230469 C 651.730469 43.414063 652.789063 40.472656 655.488281 40.3125 C 659.628906 39.84375 663.800781 40.183594 667.960938 40.320313 C 663.28125 50.023438 656.75 58.664063 649.421875 66.503906 C 656.039063 78.09375 662.980469 89.492188 669.558594 101.113281 C 664.371094 101.140625 659.171875 101.171875 653.980469 101.050781 C 649.070313 92.441406 644.101563 83.851563 638.949219 75.382813 C 636.808594 77.023438 633.570313 78.371094 633.429688 81.460938 C 632.851563 88.003906 633.351563 94.582031 633.238281 101.140625 C 628.710938 101.113281 624.179688 101.101563 619.660156 101.140625 C 619.699219 73.222656 619.648438 45.292969 619.691406 17.371094 "/>
<path style=" stroke:none;fill-rule:nonzero;fill:rgb(17.298889%,72.898865%,63.09967%);fill-opacity:1;" d="M 366.480469 23.402344 C 371.03125 23.023438 375.558594 22.390625 380.121094 22.101563 C 380.078125 28.121094 380.050781 34.140625 380.199219 40.164063 C 384.871094 40.183594 389.558594 40.183594 394.238281 40.261719 C 394.210938 43.941406 394.210938 47.613281 394.25 51.292969 C 389.550781 51.351563 384.859375 51.523438 380.171875 51.652344 C 380.089844 61.273438 379.980469 70.902344 380.101563 80.523438 C 380.351563 83.921875 380.441406 88.140625 383.449219 90.371094 C 386.859375 91.792969 390.691406 91.113281 394.28125 91.042969 C 394.210938 94.851563 394.199219 98.664063 394.191406 102.472656 C 386.929688 103.140625 378.679688 104.101563 372.46875 99.414063 C 366.75 94.980469 366.269531 87.121094 366.28125 80.472656 C 366.410156 61.453125 366.078125 42.421875 366.480469 23.402344 "/>
<path style=" stroke:none;fill-rule:nonzero;fill:rgb(17.298889%,72.898865%,63.09967%);fill-opacity:1;" d="M 264.820313 50.792969 C 259.089844 52.640625 256.648438 58.941406 256.101563 64.441406 C 255.519531 71.164063 255.289063 78.371094 258.28125 84.59375 C 262.488281 93.433594 277.378906 93.503906 281.648438 84.671875 C 284.179688 79.683594 284.300781 73.902344 284.191406 68.421875 C 284 63.402344 283.25 57.980469 279.898438 54.011719 C 276.269531 49.773438 269.871094 49.121094 264.820313 50.792969 Z M 262.839844 39.03125 C 271.421875 37.902344 281.039063 38.164063 288.179688 43.703125 C 295.699219 49.441406 298.199219 59.371094 298.558594 68.402344 C 298.75 77.253906 297.699219 86.871094 292 94.03125 C 286.921875 100.480469 278.441406 103.230469 270.449219 103.082031 C 262.171875 103.300781 253.191406 100.722656 247.941406 93.941406 C 242.210938 86.800781 241.328125 77.222656 241.609375 68.390625 C 241.699219 61.382813 243.089844 54.082031 247.328125 48.332031 C 250.921875 43.242188 256.75 40.03125 262.839844 39.03125 "/>
<path style=" stroke:none;fill-rule:nonzero;fill:rgb(17.298889%,72.898865%,63.09967%);fill-opacity:1;" d="M 424.789063 50.730469 C 418.570313 52.632813 416.039063 59.542969 415.78125 65.480469 C 415.519531 72.351563 414.96875 79.972656 418.910156 86.003906 C 422.648438 91.691406 430.910156 92.433594 436.648438 89.632813 C 442.03125 86.722656 443.46875 80.113281 443.871094 74.503906 C 444.160156 68.023438 444.140625 60.960938 440.628906 55.261719 C 437.371094 50.0625 430.269531 48.960938 424.789063 50.730469 Z M 422.800781 39.003906 C 431.371094 37.914063 441 38.242188 448.089844 43.800781 C 455.179688 49.371094 457.929688 58.703125 458.160156 67.390625 C 458.578125 76.730469 457.648438 86.980469 451.410156 94.441406 C 446.148438 100.871094 437.480469 103.273438 429.449219 103.082031 C 421.921875 103.132813 413.929688 100.902344 408.738281 95.171875 C 402.921875 88.800781 401.371094 79.8125 401.148438 71.480469 C 401.140625 63.664063 402.261719 55.402344 406.738281 48.78125 C 410.371094 43.402344 416.449219 39.992188 422.800781 39.003906 "/>
<path style=" stroke:none;fill-rule:nonzero;fill:rgb(17.298889%,72.898865%,63.09967%);fill-opacity:1;" d="M 574.910156 75.882813 C 570.421875 79.84375 571.589844 88.710938 577.621094 90.453125 C 583.5 92.28125 589.269531 89.171875 594.230469 86.3125 C 594.238281 81.710938 594.25 77.121094 594.238281 72.523438 C 587.761719 71.871094 580.070313 71.023438 574.910156 75.882813 Z M 565.78125 38.882813 C 573.351563 38.761719 580.921875 38.34375 588.488281 38.664063 C 594.320313 38.871094 600.53125 40.890625 604.160156 45.703125 C 607.550781 50.164063 608.179688 55.980469 608.160156 61.414063 C 608.121094 74.664063 608.101563 87.914063 608.148438 101.160156 C 604.058594 101.113281 599.980469 101.113281 595.910156 101.140625 C 595.621094 99.320313 595.339844 97.503906 595.078125 95.691406 C 591.179688 98.390625 587.128906 101.222656 582.339844 101.960938 C 576.261719 102.933594 569.339844 102.621094 564.460938 98.433594 C 558.398438 93.460938 556.898438 84.84375 558.28125 77.472656 C 559.390625 70.992188 564.578125 65.78125 570.660156 63.640625 C 578.339844 60.832031 586.691406 62.023438 594.578125 63.09375 C 594.210938 58.890625 594.46875 53.03125 589.550781 51.414063 C 581.859375 49.003906 573.679688 50.8125 565.808594 51.183594 C 565.828125 47.082031 565.828125 42.980469 565.78125 38.882813 "/>
<path style=" stroke:none;fill-rule:nonzero;fill:rgb(17.298889%,72.898865%,63.09967%);fill-opacity:1;" d="M 772.269531 47.613281 C 776.410156 43.820313 780.75 39.441406 786.628906 38.773438 C 791.480469 38.253906 796.769531 38.28125 801.121094 40.800781 C 803.839844 42.421875 805.820313 44.953125 807.910156 47.28125 C 812.230469 43.613281 816.851563 39.742188 822.648438 38.851563 C 828.871094 38.011719 836.101563 38.402344 840.851563 43.050781 C 845.929688 48.070313 846.550781 55.691406 846.578125 62.453125 C 846.519531 75.351563 846.691406 88.261719 846.449219 101.160156 C 841.871094 101.132813 837.308594 101.121094 832.75 101.152344 C 832.75 88.914063 832.78125 76.671875 832.800781 64.441406 C 832.601563 60.402344 832.589844 55.511719 829.148438 52.742188 C 824.570313 49.421875 817.921875 51.402344 814.480469 55.480469 C 810.679688 59.84375 809.839844 65.871094 809.921875 71.453125 C 810 81.34375 809.949219 91.242188 810.011719 101.132813 C 805.421875 101.113281 800.828125 101.113281 796.238281 101.160156 C 796 88.902344 796.199219 76.640625 796.171875 64.382813 C 796.050781 60.472656 795.910156 55.960938 792.949219 53.03125 C 789.210938 49.8125 783.371094 50.871094 779.839844 53.882813 C 774.941406 57.820313 773.320313 64.371094 773.25 70.414063 C 773.128906 80.652344 773.28125 90.902344 773.238281 101.152344 C 768.710938 101.121094 764.179688 101.121094 759.660156 101.152344 C 759.671875 80.84375 759.699219 60.523438 759.640625 40.210938 C 763.679688 40.203125 767.730469 40.230469 771.78125 40.351563 C 771.921875 42.773438 772.078125 45.191406 772.269531 47.613281 "/>
<path style=" stroke:none;fill-rule:nonzero;fill:rgb(17.298889%,72.898865%,63.09967%);fill-opacity:1;" d="M 490.109375 42.140625 C 493.191406 40.550781 496.609375 39.863281 499.96875 39.140625 C 499.96875 43.363281 499.96875 47.582031 499.980469 51.8125 C 494.371094 53.652344 488.410156 55.890625 484.820313 60.871094 C 482.238281 64.121094 481.550781 68.351563 481.589844 72.390625 C 481.53125 81.972656 481.878906 91.570313 481.390625 101.152344 C 476.839844 101.121094 472.289063 101.121094 467.75 101.140625 C 467.789063 80.851563 467.808594 60.550781 467.738281 40.253906 C 471.679688 40.210938 475.628906 40.191406 479.570313 40.140625 C 479.929688 43.253906 480.160156 46.371094 480.488281 49.480469 C 483.558594 46.871094 486.480469 43.972656 490.109375 42.140625 "/>
<path style=" stroke:none;fill-rule:nonzero;fill:rgb(17.298889%,72.898865%,63.09967%);fill-opacity:1;" d="M 672.410156 40.210938 C 677.28125 40.203125 682.148438 40.121094 687.011719 40.390625 C 690.628906 55.402344 694.058594 70.542969 699.269531 85.09375 C 703.820313 70.273438 707.558594 55.222656 711.371094 40.203125 C 716.109375 40.183594 720.859375 40.183594 725.609375 40.261719 C 720.371094 60.8125 714.140625 81.113281 707.039063 101.09375 C 701.609375 101.140625 696.191406 101.121094 690.769531 101.101563 C 683.519531 81.171875 677.710938 60.742188 672.410156 40.210938 "/>
<path style=" stroke:none;fill-rule:nonzero;fill:rgb(17.298889%,72.898865%,63.09967%);fill-opacity:1;" d="M 733.820313 40.402344 C 738.410156 40.253906 743.019531 40.210938 747.621094 40.222656 C 747.679688 60.53125 747.859375 80.84375 747.53125 101.152344 C 742.949219 101.132813 738.378906 101.132813 733.820313 101.140625 C 733.921875 80.890625 733.921875 60.640625 733.820313 40.402344 "/>
<path style=" stroke:none;fill-rule:nonzero;fill:rgb(17.298889%,72.898865%,63.09967%);fill-opacity:1;" d="M 857.699219 40.402344 C 862.28125 40.273438 866.859375 40.210938 871.441406 40.242188 C 871.621094 60.542969 871.878906 80.851563 871.289063 101.152344 C 866.761719 101.113281 862.230469 101.113281 857.710938 101.140625 C 857.769531 80.890625 857.800781 60.652344 857.699219 40.402344 "/>
<path style=" stroke:none;fill-rule:nonzero;fill:rgb(16.899109%,72.898865%,63.09967%);fill-opacity:1;" d="M 50.421875 0 C 58.453125 0.0117188 66.484375 -0.015625 74.515625 0.0117188 C 74.878906 3.007813 74.996094 6.023438 75.296875 9.027344 C 75.691406 13.015625 75.90625 17.023438 76.300781 21.015625 C 76.65625 25.539063 77.054688 30.0625 77.46875 34.582031 C 77.535156 35.257813 77.585938 35.933594 77.597656 36.613281 C 76.007813 37.261719 74.363281 37.761719 72.777344 38.410156 C 69.175781 39.632813 65.675781 41.109375 62.167969 42.5625 C 59.554688 43.773438 56.921875 44.9375 54.398438 46.316406 C 48.394531 49.5 42.5625 53.035156 37.191406 57.207031 C 34.566406 59.210938 32.085938 61.390625 29.648438 63.617188 C 28.871094 64.300781 28.273438 65.195313 27.386719 65.746094 C 26.578125 65.695313 25.867188 65.253906 25.128906 64.964844 C 17.929688 61.898438 10.710938 58.882813 3.511719 55.816406 C 2.324219 55.316406 1.09375 54.914063 0 54.230469 C 0.222656 53.105469 0.644531 52.035156 1 50.949219 C 2.796875 45.5 4.503906 40.019531 6.308594 34.570313 C 6.679688 33.476563 6.925781 32.332031 7.464844 31.296875 C 8.476563 31.398438 9.453125 31.695313 10.4375 31.933594 C 15.972656 33.199219 21.464844 34.625 27.003906 35.867188 C 29.558594 36.386719 32.058594 37.140625 34.621094 37.648438 C 37.242188 38.21875 39.84375 38.871094 42.464844 39.449219 C 43.945313 39.757813 45.390625 40.265625 46.902344 40.394531 C 47.925781 27.933594 49.042969 15.476563 50.054688 3.015625 C 50.117188 2.003906 50.117188 0.976563 50.421875 0 "/>
<g clip-path="url(#clip2)" clip-rule="nonzero">
<path style=" stroke:none;fill-rule:nonzero;fill:rgb(16.899109%,72.898865%,63.09967%);fill-opacity:1;" d="M 107.148438 32.894531 C 110.558594 32.371094 113.957031 31.71875 117.394531 31.375 C 117.78125 32.113281 118.03125 32.90625 118.261719 33.699219 C 120.148438 39.578125 122.066406 45.445313 123.960938 51.320313 C 124.300781 52.371094 124.746094 53.398438 124.882813 54.503906 C 122.402344 55.097656 119.890625 55.558594 117.4375 56.265625 C 109.90625 58.210938 102.609375 60.992188 95.636719 64.425781 C 86.246094 69.003906 77.503906 74.890625 69.652344 81.773438 C 64.996094 85.789063 60.714844 90.242188 56.761719 94.945313 C 51.234375 101.5625 46.390625 108.75 42.410156 116.394531 C 41.960938 117.285156 41.5625 118.207031 40.992188 119.03125 C 39.957031 118.523438 39.039063 117.820313 38.070313 117.210938 C 31.132813 112.769531 24.214844 108.296875 17.285156 103.84375 C 16.234375 103.148438 15.097656 102.582031 14.140625 101.757813 C 15.066406 99.6875 16.324219 97.789063 17.445313 95.824219 C 20.875 90.09375 24.753906 84.636719 29.003906 79.484375 C 31.140625 76.867188 33.371094 74.316406 35.765625 71.929688 C 36.742188 70.886719 37.695313 69.8125 38.78125 68.878906 C 40.027344 67.675781 41.234375 66.4375 42.554688 65.320313 C 43.988281 63.867188 45.628906 62.640625 47.152344 61.285156 C 55.292969 54.570313 64.195313 48.761719 73.6875 44.144531 C 76.90625 42.480469 80.261719 41.097656 83.625 39.757813 C 86.691406 38.488281 89.847656 37.457031 93.011719 36.460938 C 97.679688 35.121094 102.351563 33.742188 107.148438 32.894531 "/>
</g>
<g clip-path="url(#clip3)" clip-rule="nonzero">
<path style=" stroke:none;fill-rule:nonzero;fill:rgb(16.899109%,72.898865%,63.09967%);fill-opacity:1;" d="M 88.613281 73.738281 C 88.921875 73.535156 89.410156 73.175781 89.652344 73.664063 C 95.359375 83.082031 101.042969 92.519531 106.746094 101.941406 C 107.316406 102.9375 107.984375 103.882813 108.503906 104.910156 C 106.070313 106.8125 103.492188 108.53125 101.011719 110.378906 C 98.011719 112.574219 94.988281 114.738281 91.996094 116.949219 C 90.976563 117.640625 90.027344 118.445313 88.9375 119.03125 C 87.144531 117.261719 85.632813 115.230469 83.945313 113.363281 C 79.460938 108.121094 74.957031 102.894531 70.457031 97.667969 C 70.078125 97.214844 69.59375 96.8125 69.394531 96.25 C 69.4375 95.855469 69.617188 95.492188 69.773438 95.132813 C 70.984375 92.636719 72.453125 90.269531 74.070313 88.019531 C 78.074219 82.492188 82.957031 77.578125 88.613281 73.738281 "/>
</g>
</g>
</svg>
