<svg xmlns="http://www.w3.org/2000/svg" width="152" height="65" viewBox="0 0 152 65"><defs><clipPath id="3sl0a"><path d="M87.22.03h64.71v64.233H87.22z"/></clipPath></defs><g><g><g><path fill="#fefefe" d="M10.663 17.64l5.417 15.422L27.4 17.64h4.1l-3.916 19.333-3.77-.101 2.534-12.691-9.028 12.374h-3.61L9.16 23.66 5.133 44.1H1.26l5.191-26.46z"/></g><g><g><path fill="#fefefe" d="M35.453 43.027c-1.086 1.028-2.689 1.542-4.81 1.542-2.171 0-3.867-.482-5.088-1.45-1.221-.967-1.831-2.406-1.831-4.316 0-.22.018-.52.055-.9.036-.38.092-.753.166-1.121l1.81-8.861 3.553.56-1.551 8.301c-.124.687-.185 1.225-.185 1.617 0 1.101.302 1.873.906 2.314.604.44 1.499.661 2.682.661.889 0 1.648-.067 2.276-.202.63-.135 1.153-.374 1.573-.716.42-.343.759-.814 1.017-1.415.26-.6.475-1.364.649-2.296l2.034-10.505h3.811l-3.33 17.081c-.296 1.494-.685 2.773-1.165 3.838-.482 1.066-1.104 1.935-1.868 2.609-.766.673-1.684 1.168-2.757 1.486-1.073.319-2.326.479-3.756.479H26.073c-.53 0-1.067-.007-1.61-.019-.543-.013-1.147-.031-1.813-.055l1.258-3.27c.888.05 1.8.086 2.74.111.935.024 1.935.037 2.996.037 1.652 0 2.905-.362 3.756-1.084.85-.723 1.485-1.99 1.905-3.802z"/></g><g><path fill="#fefefe" d="M63.586 37.638c-.864 1.653-1.913 2.956-3.147 3.912a10.809 10.809 0 0 1-4.199 1.983c-1.567.367-3.287.55-5.162.55H42.42l5.143-26.153h7.66c3.577 0 6.272.717 8.085 2.15 1.812 1.432 2.719 3.752 2.719 6.96 0 1.298-.148 2.73-.444 4.298-.469 2.547-1.135 4.647-1.997 6.3zm-12.84-16.254L46.972 40.63h4.513c1.381 0 2.615-.104 3.7-.313a6.15 6.15 0 0 0 2.85-1.34c.814-.685 1.51-1.653 2.09-2.902.58-1.249 1.067-2.925 1.462-5.03.296-1.568.444-2.915.444-4.042 0-1.15-.148-2.092-.444-2.827-.296-.735-.74-1.31-1.332-1.726-.592-.416-1.32-.698-2.184-.845-.863-.147-1.85-.22-2.96-.22z"/></g><g><path fill="#fefefe" d="M75.593 28.215c-.888 0-1.629.062-2.22.185-.593.122-1.092.361-1.499.715-.407.356-.735.84-.98 1.45-.248.614-.457 1.398-.63 2.353l-2.183 11.166H64.27l2.22-11.497c.296-1.592.71-2.884 1.24-3.875.53-.992 1.178-1.763 1.943-2.315.764-.55 1.664-.918 2.7-1.101 1.036-.185 2.22-.276 3.552-.276.567 0 1.049.007 1.444.018.394.013.875.043 1.443.092l-1.222 3.159a53.739 53.739 0 0 0-1.073-.055c-.32-.012-.629-.019-.924-.019"/></g><g><path fill="#fefefe" d="M85.656 29.69a4.586 4.586 0 0 1-.871-6.604 4.613 4.613 0 0 1 3.116-1.688 4.605 4.605 0 0 1 3.406.991 4.566 4.566 0 0 1 1.7 3.094 4.553 4.553 0 0 1-1 3.381 4.62 4.62 0 0 1-3.116 1.689zm4.473-6.055a2.929 2.929 0 0 0-2.04-.543 2.915 2.915 0 0 0-1.966 1.062 2.87 2.87 0 0 0 .442 4.07 2.939 2.939 0 0 0 2.149.623 2.918 2.918 0 0 0 1.966-1.061c.49-.602.713-1.357.63-2.125a2.863 2.863 0 0 0-1.073-1.944z"/></g><g><g/><g clip-path="url(#3sl0a)"><path fill="#fefefe" d="M107.854 62.063c-.465-.18-.927-.37-1.387-.573-12.37-5.444-20.076-18.103-19.176-31.5a.858.858 0 0 1 .915-.794.854.854 0 0 1 .799.907c-.852 12.686 6.445 24.673 18.159 29.828 7.471 3.29 15.805 3.495 23.439.572 7.634-2.922 13.665-8.622 16.981-16.047 3.317-7.427 3.522-15.69.577-23.27-2.944-7.578-8.686-13.565-16.166-16.856-11.702-5.145-25.56-2.475-34.458 6.669a.862.862 0 0 1-1.215.021.849.849 0 0 1-.021-1.206c9.397-9.657 24.02-12.488 36.39-7.044C149 9.947 156.385 28.957 149.155 45.146c-3.502 7.844-9.872 13.862-17.934 16.949-7.593 2.907-15.835 2.885-23.367-.032"/></g></g><g><path fill="#fefefe" d="M116.84 39.514h-.153a5.602 5.602 0 0 1-3.964-1.634l-9.851-9.857a9.566 9.566 0 0 1-2.852-6.835 9.57 9.57 0 0 1 2.855-6.838 9.8 9.8 0 0 1 11.13-1.864l-.851 1.747a7.829 7.829 0 0 0-8.897 1.49 7.653 7.653 0 0 0-2.281 5.465c0 2.064.81 4.005 2.28 5.466l9.852 9.857a3.666 3.666 0 0 0 2.604 1.063h.103c1.01 0 1.935-.377 2.63-1.067l9.976-9.854a7.643 7.643 0 0 0 2.28-5.464c0-2.064-.81-4.005-2.282-5.466a7.83 7.83 0 0 0-8.897-1.49l-.852-1.747a9.798 9.798 0 0 1 11.132 1.864 9.576 9.576 0 0 1 2.854 6.839 9.574 9.574 0 0 1-2.854 6.839l-9.978 9.854a5.62 5.62 0 0 1-3.984 1.632"/></g><g><path fill="#fefefe" d="M113.741 15.57l-1.644-.696a1.94 1.94 0 0 1-1.031-2.545 1.966 1.966 0 0 1 2.565-1.024l1.643.695a1.94 1.94 0 0 1 1.032 2.546 1.966 1.966 0 0 1-2.565 1.024"/></g><g><path fill="#fefefe" d="M120.12 15.57l1.644-.696a1.94 1.94 0 0 0 1.032-2.545 1.966 1.966 0 0 0-2.565-1.024l-1.644.695a1.94 1.94 0 0 0-1.031 2.546 1.966 1.966 0 0 0 2.564 1.024"/></g><g><path fill="#fefefe" d="M134.477 41.21c.067 1.984-1.27 3.69-3.121 4.187.02.072.034.146.037.223l.279 3.255c.149 4.374-3.314 8.05-7.72 8.198-4.404.148-8.107-3.29-8.256-7.661l-.106-11.297 2.054.045-.033 11.186c.113 3.326 2.93 5.94 6.278 5.826 3.35-.112 5.981-2.91 5.868-6.234l-.28-3.255a.944.944 0 0 1 .018-.209c-1.91-.347-3.392-1.977-3.46-3.98-.08-2.31 1.752-4.254 4.078-4.332zm-1.924.065a2.302 2.302 0 0 0-2.38-2.212 2.3 2.3 0 0 0-2.224 2.368 2.302 2.302 0 0 0 2.38 2.212z"/></g><g><path fill="#fefefe" d="M129.01 41.322c0-.68.556-1.232 1.242-1.232.685 0 1.242.551 1.242 1.232 0 .681-.557 1.233-1.242 1.233a1.237 1.237 0 0 1-1.242-1.233"/></g><g><path fill="#fefefe" d="M4.256 14.826c.456.244.812.593 1.066 1.047.254.454.382.927.382 1.42 0 .488-.126.957-.376 1.407-.25.45-.603.8-1.055 1.049-.452.25-.926.373-1.419.373-.494 0-.967-.124-1.42-.373A2.654 2.654 0 0 1 .378 18.7 2.84 2.84 0 0 1 0 17.293c0-.493.128-.966.383-1.42a2.626 2.626 0 0 1 1.068-1.047 2.94 2.94 0 0 1 1.403-.366c.479 0 .946.122 1.402.366zm-2.572.409a2.201 2.201 0 0 0-.89.874c-.215.38-.321.773-.321 1.184 0 .408.104.799.315 1.172.21.375.505.667.883.875a2.41 2.41 0 0 0 1.183.313c.41 0 .805-.104 1.183-.313.378-.208.671-.5.88-.875.21-.373.314-.764.314-1.172 0-.41-.106-.805-.32-1.184a2.186 2.186 0 0 0-.89-.875 2.447 2.447 0 0 0-1.167-.305c-.401 0-.791.102-1.17.305zm-.082 3.623V15.81h1.055c.36 0 .621.028.783.084.161.057.29.155.385.295.096.14.144.29.144.446 0 .223-.08.417-.24.582a.95.95 0 0 1-.637.277.87.87 0 0 1 .261.162c.123.12.275.321.453.604l.374.597h-.604l-.272-.48c-.215-.378-.388-.615-.518-.71-.091-.07-.223-.105-.397-.105h-.291v1.295zm.496-1.715h.597c.285 0 .48-.042.583-.127a.416.416 0 0 0 .156-.338c0-.09-.026-.171-.076-.243a.45.45 0 0 0-.208-.159c-.088-.034-.253-.052-.493-.052h-.56z"/></g></g></g></g></svg>